<svg width="94" height="92" viewBox="0 0 94 92" fill="none" xmlns="http://www.w3.org/2000/svg">
<path d="M29.4134 27.8109C41.3612 16.2399 54.1581 7.84262 65.1721 3.6084C70.6799 1.49096 75.7185 0.423068 79.9693 0.50423C84.2171 0.585363 87.6414 1.81056 89.9926 4.23809C92.3438 6.66585 93.4591 10.1281 93.4042 14.3765C93.3491 18.6278 92.1204 23.6296 89.8276 29.0668C85.2427 39.9394 76.4398 52.4608 64.492 64.0318C52.5442 75.6028 39.7472 84.0002 28.7333 88.2343C23.2257 90.3516 18.1874 91.419 13.9367 91.3378C9.68876 91.2567 6.26399 90.031 3.9128 87.6032C1.56182 85.1755 0.446952 81.7137 0.501932 77.4655C0.556991 73.2144 1.78518 68.2129 4.07781 62.7759C8.66262 51.9033 17.4656 39.3819 29.4134 27.8109Z" fill="#754EBA" stroke="#9E6BFC"/>
</svg>
