<svg width="105" height="103" viewBox="0 0 105 103" fill="none" xmlns="http://www.w3.org/2000/svg">
<path d="M35.7814 33.9507C49.4345 20.7281 63.6733 10.7274 75.6434 5.23992C81.6307 2.49516 87.025 0.891689 91.479 0.563262C95.9365 0.234651 99.378 1.1856 101.575 3.45365C103.771 5.72174 104.611 9.19189 104.14 13.6365C103.669 18.0778 101.894 23.418 98.9585 29.3142C93.0904 41.1024 82.6387 55.0136 68.9856 68.2361C55.3325 81.4586 41.0936 91.4593 29.1235 96.9469C23.1362 99.6916 17.7419 101.295 13.2879 101.624C8.83032 101.952 5.38898 101.001 3.19239 98.7332C0.995831 96.4651 0.155604 92.995 0.626878 88.5503C1.09781 84.109 2.87326 78.7688 5.8084 72.8726C11.6766 61.0844 22.1282 47.1732 35.7814 33.9507Z" fill="#39459C" fill-opacity="0.48" stroke="#7538E8"/>
</svg>
