<svg width="97" height="95" viewBox="0 0 97 95" fill="none" xmlns="http://www.w3.org/2000/svg">
<path d="M31.3056 29.6429C43.6928 17.6463 56.8137 8.78628 67.9979 4.15009C73.5915 1.8314 78.6762 0.579659 82.9282 0.503843C87.1791 0.428046 90.5482 1.52597 92.7975 3.84849C95.0465 6.17096 96.0354 9.57308 95.8236 13.8191C95.6116 18.0666 94.1976 23.1085 91.7009 28.625C86.7089 39.6549 77.4331 52.4852 65.0458 64.4819C52.6585 76.4785 39.5376 85.3385 28.3534 89.9747C22.76 92.2933 17.6751 93.5451 13.4232 93.6209C9.17266 93.6966 5.80443 92.5986 3.55526 90.2763C1.30605 87.9539 0.315921 84.5518 0.527774 80.3056C0.739757 76.0583 2.1538 71.0162 4.65042 65.4998C9.64245 54.4699 18.9183 41.6396 31.3056 29.6429Z" fill="#9F54C2" fill-opacity="0.64" stroke="#744FBA"/>
</svg>
