<svg width="147" height="126" viewBox="0 0 147 126" fill="none" xmlns="http://www.w3.org/2000/svg">
<path d="M52.4629 8.11333C74.0917 -12.8334 97.3485 -27.9674 117.448 -35.515C127.498 -39.2891 136.736 -41.1584 144.574 -40.9245C152.408 -40.6907 158.81 -38.3587 163.256 -33.768C167.702 -29.1772 169.827 -22.7042 169.81 -14.8663C169.793 -7.02515 167.629 2.14868 163.535 12.0731C155.348 31.9203 139.476 54.6797 117.847 75.6264C96.2181 96.573 72.9619 111.708 52.8626 119.255C42.8121 123.03 33.5737 124.898 25.736 124.664C17.9017 124.43 11.5 122.098 7.05399 117.508C2.60806 112.917 0.482364 106.444 0.499625 98.606C0.516893 90.7648 2.68114 81.5917 6.77526 71.6673C14.9628 51.82 30.8341 29.0601 52.4629 8.11333Z" fill="#39459C" stroke="#744FBA"/>
</svg>
