<svg width="99" height="120" viewBox="0 0 99 120" fill="none" xmlns="http://www.w3.org/2000/svg">
<path fill-rule="evenodd" clip-rule="evenodd" d="M48.4269 20.5994C45.0769 20.5994 41.8641 21.9302 39.4953 24.299C37.1264 26.6678 35.7957 29.8806 35.7957 33.2306V44.0574C35.7957 45.4931 35.2253 46.87 34.2101 47.8853C33.1949 48.9005 31.818 49.4708 30.3823 49.4708C28.9465 49.4708 27.5696 48.9005 26.5544 47.8853C25.5392 46.87 24.9689 45.4931 24.9689 44.0574V33.2306C24.9689 27.0092 27.4403 21.0425 31.8396 16.6433C36.2388 12.244 42.2054 9.77258 48.4269 9.77258C54.6484 9.77258 60.615 12.244 65.0142 16.6433C69.4135 21.0425 71.8849 27.0092 71.8849 33.2306V44.0574C71.8849 45.4931 71.3146 46.87 70.2994 47.8853C69.2842 48.9005 67.9073 49.4708 66.4715 49.4708C65.0358 49.4708 63.6589 48.9005 62.6437 47.8853C61.6285 46.87 61.0582 45.4931 61.0582 44.0574V33.2306C61.0582 29.8806 59.7274 26.6678 57.3586 24.299C54.9897 21.9302 51.7769 20.5994 48.4269 20.5994Z" fill="#2859C5"/>
<path d="M12.3376 38.0161C11.4503 38.0158 10.5939 38.3424 9.93221 38.9336C9.27047 39.5248 8.84973 40.339 8.75034 41.2208L2.63682 96.0476L2.56464 96.5529C2.42028 97.7294 2.16766 99.6638 2.55742 101.533C3.38026 105.481 6.38289 108.722 10.3022 109.805C12.0633 110.296 14.0699 110.238 15.2897 110.209L15.9393 110.195H80.9L81.5569 110.209C82.7839 110.238 84.7832 110.296 86.5516 109.805C90.4565 108.722 93.4663 105.474 94.2964 101.533C94.6861 99.6638 94.4335 97.7294 94.2747 96.5529L94.217 96.0476L88.1035 41.2208C88.0041 40.339 87.5833 39.5248 86.9216 38.9336C86.2599 38.3424 85.4035 38.0158 84.5162 38.0161H12.3376Z" fill="#8FBFFA"/>
<path d="M21.4461 96.8095H22.9101L25.3776 103.57H25.1967L27.6642 96.8095H29.1282L25.9863 104.673H24.588L21.4461 96.8095ZM33.8153 104.87C33.1354 104.87 32.5267 104.697 31.9894 104.352C31.4575 104.001 31.0353 103.516 30.7227 102.896C30.4156 102.276 30.2621 101.564 30.2621 100.757C30.2621 99.8966 30.4156 99.1563 30.7227 98.5367C31.0298 97.9171 31.4492 97.4428 31.9811 97.1138C32.5185 96.7793 33.1299 96.6121 33.8153 96.6121C34.413 96.6121 34.9229 96.7327 35.3452 96.974C35.7674 97.2152 36.1073 97.5415 36.3651 97.9528C36.6228 98.364 36.801 98.8301 36.8997 99.351C37.0039 99.8664 37.034 100.401 36.9902 100.955H31.2985V100.165H36.143L35.7646 100.412C35.7811 100.089 35.7619 99.765 35.7071 99.4415C35.6577 99.118 35.5617 98.8219 35.4192 98.5532C35.2766 98.279 35.0765 98.0597 34.8188 97.8952C34.561 97.7307 34.232 97.6484 33.8318 97.6484C33.3273 97.6484 32.9051 97.7773 32.5651 98.035C32.2251 98.2927 31.9702 98.6327 31.8002 99.0549C31.6302 99.4716 31.5452 99.924 31.5452 100.412V100.938C31.5452 101.487 31.6275 101.978 31.792 102.411C31.9619 102.844 32.2142 103.187 32.5487 103.439C32.8831 103.691 33.3054 103.817 33.8153 103.817C34.3253 103.817 34.7447 103.694 35.0737 103.447C35.4027 103.2 35.6029 102.836 35.6742 102.353H37.0066C36.9244 102.874 36.7379 103.324 36.4473 103.702C36.1567 104.075 35.7866 104.363 35.3369 104.566C34.8873 104.769 34.3801 104.87 33.8153 104.87ZM45.1275 104.673V100.05C45.1275 99.2989 44.9466 98.7286 44.5847 98.3393C44.2282 97.9445 43.7402 97.7471 43.1206 97.7471C42.649 97.7471 42.2405 97.876 41.8951 98.1337C41.5496 98.3914 41.2837 98.7615 41.0973 99.2441C40.9108 99.7211 40.8176 100.291 40.8176 100.955H40.3241C40.3241 100.039 40.4447 99.2578 40.686 98.6108C40.9273 97.9637 41.2782 97.4702 41.7388 97.1303C42.2049 96.7848 42.7697 96.6121 43.4332 96.6121C44.0528 96.6121 44.5819 96.7519 45.0206 97.0316C45.4647 97.3057 45.8047 97.7005 46.0405 98.216C46.2763 98.7314 46.3942 99.3428 46.3942 100.05V104.673H45.1275ZM39.5345 104.673V96.8095H40.6367L40.8176 98.619V104.673H39.5345ZM51.8805 104.87C51.4528 104.87 51.069 104.788 50.729 104.623C50.389 104.459 50.1203 104.212 49.9229 103.883C49.7255 103.554 49.6268 103.143 49.6268 102.649V94.6216H50.8935V102.616C50.8935 103.428 51.2718 103.834 52.0285 103.834C52.2534 103.834 52.4699 103.809 52.6783 103.76C52.8922 103.71 53.1307 103.636 53.3939 103.538L53.5748 104.459C53.2952 104.579 53.0155 104.678 52.7359 104.755C52.4617 104.832 52.1766 104.87 51.8805 104.87ZM48.3602 97.6978V96.8095H53.3774V97.6978H48.3602ZM60.5164 104.673L60.3519 102.945V99.5731C60.3519 98.8657 60.2011 98.3585 59.8995 98.0515C59.5979 97.7389 59.1455 97.5826 58.5424 97.5826C58.2024 97.5826 57.8926 97.632 57.6129 97.7307C57.3388 97.8294 57.1194 97.9829 56.9549 98.1913C56.7959 98.3942 56.7164 98.6574 56.7164 98.9809H55.2853C55.2853 98.4106 55.4251 97.9528 55.7047 97.6073C55.9844 97.2564 56.3682 97.0041 56.8562 96.8506C57.3497 96.6916 57.9118 96.6121 58.5424 96.6121C59.1455 96.6121 59.6801 96.7135 60.1462 96.9164C60.6123 97.1193 60.977 97.4428 61.2402 97.887C61.5034 98.3256 61.635 98.8986 61.635 99.606V104.673H60.5164ZM57.835 104.87C57.188 104.87 56.6533 104.755 56.2311 104.525C55.8089 104.294 55.4936 103.995 55.2853 103.628C55.0769 103.261 54.9727 102.874 54.9727 102.468C54.9727 101.936 55.1043 101.503 55.3675 101.169C55.6362 100.834 56.0008 100.59 56.4614 100.437C56.922 100.278 57.4402 100.198 58.016 100.198C58.4272 100.198 58.8385 100.239 59.2497 100.322C59.6664 100.404 60.0722 100.516 60.467 100.659V101.465C60.138 101.333 59.7651 101.229 59.3484 101.152C58.9372 101.076 58.5588 101.037 58.2134 101.037C57.687 101.037 57.2428 101.147 56.8809 101.366C56.519 101.58 56.3381 101.947 56.3381 102.468C56.3381 102.852 56.4751 103.181 56.7493 103.455C57.029 103.729 57.4731 103.867 58.0818 103.867C58.5095 103.867 58.8933 103.768 59.2333 103.57C59.5787 103.368 59.8501 103.115 60.0475 102.814C60.2504 102.512 60.3519 102.211 60.3519 101.909H60.6644C60.6644 102.435 60.5493 102.923 60.319 103.373C60.0941 103.823 59.7706 104.185 59.3484 104.459C58.9262 104.733 58.4217 104.87 57.835 104.87ZM64.7075 104.673V96.793H65.9906V104.673H64.7075ZM65.5958 101.119C65.5958 100.121 65.6918 99.2934 65.8837 98.6354C66.0756 97.9719 66.3552 97.4784 66.7226 97.1549C67.0955 96.8259 67.5479 96.6614 68.0798 96.6614C68.2552 96.6614 68.4142 96.6751 68.5568 96.7026C68.7049 96.7245 68.8529 96.7601 69.001 96.8095L68.9187 98.0761C68.7652 98.0268 68.5979 97.9857 68.417 97.9528C68.236 97.9144 68.0743 97.8952 67.9317 97.8952C67.4656 97.8952 67.09 98.0295 66.8049 98.2982C66.5197 98.5614 66.3114 98.9343 66.1798 99.4168C66.0537 99.8993 65.9906 100.467 65.9906 101.119H65.5958ZM73.4972 104.87C72.7899 104.87 72.1593 104.714 71.6055 104.401C71.0571 104.089 70.6239 103.625 70.3059 103.011C69.9879 102.397 69.8289 101.64 69.8289 100.741C69.8289 99.8363 69.9879 99.0796 70.3059 98.4709C70.6239 97.8568 71.0571 97.3935 71.6055 97.0809C72.1593 96.7684 72.7899 96.6121 73.4972 96.6121C74.1991 96.6121 74.8242 96.7684 75.3725 97.0809C75.9263 97.3935 76.3595 97.8568 76.6721 98.4709C76.9901 99.0796 77.1491 99.8363 77.1491 100.741C77.1491 101.64 76.9901 102.397 76.6721 103.011C76.3595 103.625 75.9263 104.089 75.3725 104.401C74.8242 104.714 74.1991 104.87 73.4972 104.87ZM73.4643 103.751C73.9743 103.751 74.4074 103.631 74.7639 103.389C75.1203 103.143 75.389 102.795 75.5699 102.345C75.7563 101.895 75.8496 101.361 75.8496 100.741C75.8496 99.8034 75.6549 99.0659 75.2656 98.5285C74.8763 97.9857 74.2978 97.7142 73.5301 97.7142C73.0147 97.7142 72.5787 97.8376 72.2223 98.0844C71.8714 98.3256 71.6027 98.6738 71.4163 99.1289C71.2353 99.5786 71.1449 100.116 71.1449 100.741C71.1449 101.668 71.3395 102.402 71.7288 102.945C72.1236 103.483 72.7021 103.751 73.4643 103.751Z" fill="#2859C5"/>
<g clip-path="url(#clip0_17_63)">
<path d="M28.5208 69.6247V89.5406H46.7771V69.6247H28.5208ZM49.3851 69.6247V89.5406H67.6414V69.6247H49.3851ZM70.2494 69.6247V92.0301H25.9128V69.6247H23.3047V54.6877H31.2332L31.1289 53.443C31.1289 51.1321 32.0906 48.9159 33.8024 47.2818C35.5143 45.6478 37.8361 44.7298 40.257 44.7298C43.5692 44.7298 46.4902 46.4226 48.0811 48.9619C49.672 46.4226 52.593 44.7298 55.9052 44.7298C58.3261 44.7298 60.6479 45.6478 62.3598 47.2818C64.0716 48.9159 65.0333 51.1321 65.0333 53.443L64.929 54.6877H72.8574V69.6247H70.2494ZM25.9128 57.1772V67.1352H46.7771V57.1772H25.9128ZM70.2494 67.1352V57.1772H49.3851V67.1352H70.2494ZM62.2949 54.6877L62.4253 53.443C62.4253 51.7923 61.7384 50.2093 60.5156 49.0421C59.2928 47.875 57.6344 47.2193 55.9052 47.2193C54.176 47.2193 52.5176 47.875 51.2948 49.0421C50.072 50.2093 49.3851 51.7923 49.3851 53.443V54.6877H62.2949ZM46.7771 54.6877V53.443C46.7771 51.7923 46.0901 50.2093 44.8674 49.0421C43.6446 47.875 41.9862 47.2193 40.257 47.2193C38.5277 47.2193 36.8693 47.875 35.6466 49.0421C34.4238 50.2093 33.7369 51.7923 33.7369 53.443L33.8673 54.6877H46.7771Z" fill="#2859C5"/>
</g>
<defs>
<clipPath id="clip0_17_63">
<rect width="54.0575" height="54.0575" fill="white" transform="translate(18.8 37.9726)"/>
</clipPath>
</defs>
</svg>
